<svg width="29" height="29" viewBox="0 0 29 29" fill="none" xmlns="http://www.w3.org/2000/svg">
<path d="M14.5 18.125C16.502 18.125 18.125 16.502 18.125 14.5C18.125 12.498 16.502 10.875 14.5 10.875C12.498 10.875 10.875 12.498 10.875 14.5C10.875 16.502 12.498 18.125 14.5 18.125Z" fill="#F44336"/>
<path d="M10.3252 10.1434L8.65229 8.39795C7.04642 9.93737 6.04169 12.0997 6.04169 14.5C6.04169 16.9004 7.04642 19.0627 8.65229 20.6021L10.3252 18.8567C9.17731 17.7559 8.45835 16.2116 8.45835 14.5C8.45835 12.7884 9.17731 11.2436 10.3252 10.1434Z" fill="#F44336"/>
<path d="M20.3477 8.39795L18.6748 10.1434C19.8227 11.2442 20.5417 12.7884 20.5417 14.5C20.5417 16.2116 19.8227 17.7559 18.6748 18.8567L20.3477 20.6021C21.9536 19.0627 22.9583 16.9004 22.9583 14.5C22.9583 12.0997 21.9536 9.93737 20.3477 8.39795Z" fill="#F44336"/>
<path d="M6.98475 6.65858L5.30577 4.90649C2.78217 7.32558 1.20831 10.7282 1.20831 14.5001C1.20831 18.2719 2.78217 21.6745 5.30577 24.0936L6.98475 22.3415C4.9191 20.3611 3.62498 17.5813 3.62498 14.5001C3.62498 11.4188 4.9191 8.63904 6.98475 6.65858Z" fill="#F44336"/>
<path d="M23.6942 4.90649L22.0152 6.65858C24.0808 8.63904 25.375 11.4188 25.375 14.5001C25.375 17.5813 24.0808 20.3611 22.0152 22.3415L23.6942 24.0936C26.2178 21.6745 27.7916 18.2719 27.7916 14.5001C27.7916 10.7282 26.2178 7.32558 23.6942 4.90649Z" fill="#F44336"/>
</svg>
